# xmcd CD database file
#
# Track frame offsets:
#	182
#	11565
#	23620
#	39195
#	51480
#	62912
#	76102
#	87860
#	101060
#	111967
#	123742
#	138292
#	151592
#	162775
#	175370
#	185765
#	197357
#	207722
#	222387
#	234750
#	246772
#	262105
#
# Disc length: 3666 seconds
#
# Revision: 3
# Processed by: cddbd v1.5.2PL0 Copyright (c) Steve Scherf et al.
# Submitted via: CDex 2.03
#
DISCID=2d0e5016
DTITLE=Various Artist - Country Smash Hits, Vol. 2
DYEAR=1985
DGENRE=Country
TTITLE0=Short And Sweet - Bobby Bare
TTITLE1=Color My World - Barbara Fairchild
TTITLE2=Only Oklahoma Away - Leroy Van Dyke
TTITLE3=Silver Threads And Golden Needles - Melba Montgomery
TTITLE4=Sugar Shack - Bobby G. Rice
TTITLE5=Sweetest Love - Brandy Barber
TTITLE6=Waterloo - Stonewall Jackson
TTITLE7=I Fall To Pieces - Wanda Jackson
TTITLE8=Get Me Back To Tennessee - Dave Dudley
TTITLE9=Misty Blue - Wilma Burgess
TTITLE10=I Need A Job - Tom Astor
TTITLE11=He's So Fine - Jody Miller
TTITLE12=Storybook Children - Don Williams and Poso Seco Singers
TTITLE13=Cross Over The Bridge - Patti Page
TTITLE14=Jambalaya (On The Bayou) - Johnny Russell
TTITLE15=Help Me Make It Through The Night - Sammi Smith
TTITLE16=Hello Walls - Faron Young
TTITLE17=Shake Me I Rattle - Marion Worth
TTITLE18=Six White Horses - Tommy Cash
TTITLE19=Sweet Dreams ( Of You) - Sandy Posey
TTITLE20=Why Me (Oh Lord) - Jack Greene
TTITLE21=Humphrey The Camel - Jack Blanchard and Misty Morgan
EXTD=MCS Ltd.,1985 YEAR: 1985
EXTT0=
EXTT1=
EXTT2=
EXTT3=
EXTT4=
EXTT5=
EXTT6=
EXTT7=
EXTT8=
EXTT9=
EXTT10=
EXTT11=
EXTT12=
EXTT13=
EXTT14=
EXTT15=
EXTT16=
EXTT17=
EXTT18=
EXTT19=
EXTT20=
EXTT21=
PLAYORDER=
